<svg width="28" height="27" viewBox="0 0 28 27" fill="none" xmlns="http://www.w3.org/2000/svg">
<g opacity="0.6" clip-path="url(#clip0_25_1110)" filter="url(#filter0_d_25_1110)">
<path d="M18.1667 17.5V15.8333C18.1667 14.9493 17.8155 14.1014 17.1904 13.4763C16.5653 12.8512 15.7174 12.5 14.8334 12.5H8.16671C7.28265 12.5 6.43481 12.8512 5.80968 13.4763C5.18456 14.1014 4.83337 14.9493 4.83337 15.8333V17.5" stroke="#001125" stroke-width="2" stroke-linecap="round" stroke-linejoin="round"/>
<path d="M11.5 9.16667C13.3409 9.16667 14.8333 7.67428 14.8333 5.83333C14.8333 3.99238 13.3409 2.5 11.5 2.5C9.65901 2.5 8.16663 3.99238 8.16663 5.83333C8.16663 7.67428 9.65901 9.16667 11.5 9.16667Z" stroke="#001125" stroke-width="2" stroke-linecap="round" stroke-linejoin="round"/>
<path d="M23.1666 17.5001V15.8334C23.1661 15.0948 22.9203 14.3774 22.4678 13.7937C22.0153 13.2099 21.3817 12.793 20.6666 12.6084" stroke="#001125" stroke-width="2" stroke-linecap="round" stroke-linejoin="round"/>
<path d="M17.3334 2.6084C18.0504 2.79198 18.6859 3.20898 19.1397 3.79366C19.5936 4.37833 19.8399 5.09742 19.8399 5.83757C19.8399 6.57771 19.5936 7.2968 19.1397 7.88147C18.6859 8.46615 18.0504 8.88315 17.3334 9.06673" stroke="#001125" stroke-width="2" stroke-linecap="round" stroke-linejoin="round"/>
</g>
<defs>
<filter id="filter0_d_25_1110" x="0" y="0" width="28" height="28" filterUnits="userSpaceOnUse" color-interpolation-filters="sRGB">
<feFlood flood-opacity="0" result="BackgroundImageFix"/>
<feColorMatrix in="SourceAlpha" type="matrix" values="0 0 0 0 0 0 0 0 0 0 0 0 0 0 0 0 0 0 127 0" result="hardAlpha"/>
<feOffset dy="4"/>
<feGaussianBlur stdDeviation="2"/>
<feComposite in2="hardAlpha" operator="out"/>
<feColorMatrix type="matrix" values="0 0 0 0 0 0 0 0 0 0 0 0 0 0 0 0 0 0 0.25 0"/>
<feBlend mode="normal" in2="BackgroundImageFix" result="effect1_dropShadow_25_1110"/>
<feBlend mode="normal" in="SourceGraphic" in2="effect1_dropShadow_25_1110" result="shape"/>
</filter>
<clipPath id="clip0_25_1110">
<rect width="20" height="20" fill="white" transform="translate(4)"/>
</clipPath>
</defs>
</svg>
