<svg width="16" height="16" viewBox="0 0 16 16" fill="none" xmlns="http://www.w3.org/2000/svg">
<g clip-path="url(#clip0_46_602)">
<path d="M10.0333 3.33329C10.6845 3.46034 11.2829 3.7788 11.7521 4.24792C12.2212 4.71703 12.5396 5.31547 12.6667 5.96663M10.0333 0.666626C11.3862 0.816917 12.6477 1.42274 13.6108 2.38463C14.5739 3.34652 15.1813 4.6073 15.3333 5.95996M14.6667 11.28V13.28C14.6674 13.4656 14.6294 13.6494 14.555 13.8195C14.4806 13.9896 14.3715 14.1424 14.2347 14.2679C14.0979 14.3934 13.9364 14.4889 13.7605 14.5484C13.5846 14.6079 13.3983 14.63 13.2133 14.6133C11.1619 14.3904 9.19134 13.6894 7.46001 12.5666C5.84923 11.5431 4.48356 10.1774 3.46001 8.56663C2.33333 6.82743 1.63217 4.84729 1.41334 2.78663C1.39668 2.60227 1.41859 2.41647 1.47767 2.24104C1.53676 2.06562 1.63172 1.90442 1.75652 1.76771C1.88131 1.63099 2.03321 1.52177 2.20253 1.44697C2.37186 1.37218 2.5549 1.33347 2.74001 1.33329H4.74001C5.06354 1.33011 5.3772 1.44468 5.62251 1.65565C5.86783 1.86662 6.02806 2.15959 6.07334 2.47996C6.15775 3.12 6.31431 3.74844 6.54001 4.35329C6.6297 4.59191 6.64911 4.85124 6.59594 5.10055C6.54277 5.34986 6.41925 5.5787 6.24001 5.75996L5.39334 6.60663C6.34238 8.27566 7.72431 9.65759 9.39334 10.6066L10.24 9.75996C10.4213 9.58072 10.6501 9.45719 10.8994 9.40402C11.1487 9.35085 11.4081 9.37026 11.6467 9.45996C12.2515 9.68566 12.88 9.84221 13.52 9.92663C13.8439 9.97231 14.1396 10.1354 14.351 10.385C14.5624 10.6345 14.6748 10.953 14.6667 11.28Z" stroke="#001125" stroke-width="2" stroke-linecap="round" stroke-linejoin="round"/>
</g>
<defs>
<clipPath id="clip0_46_602">
<rect width="16" height="16" fill="white"/>
</clipPath>
</defs>
</svg>
