<svg width="30" height="30" viewBox="0 0 30 30" fill="none" xmlns="http://www.w3.org/2000/svg">
<path d="M19.0019 22.7162H10.8984C10.6653 22.7162 10.4417 22.6236 10.2769 22.4588C10.1121 22.294 10.0195 22.0704 10.0195 21.8373V13.8164H6.72708C6.55705 13.8165 6.39066 13.7672 6.24807 13.6746C6.10549 13.582 5.99282 13.45 5.92373 13.2946C5.85464 13.1393 5.8321 12.9672 5.85883 12.7993C5.88556 12.6314 5.96043 12.4749 6.07434 12.3486L14.2968 3.22853C14.3792 3.13704 14.4799 3.06389 14.5924 3.01381C14.7049 2.96374 14.8267 2.93787 14.9498 2.93787C15.073 2.93787 15.1947 2.96374 15.3072 3.01381C15.4197 3.06389 15.5204 3.13704 15.6029 3.22853L23.8241 12.3486C23.9381 12.4749 24.0129 12.6314 24.0397 12.7993C24.0664 12.9672 24.0438 13.1393 23.9748 13.2946C23.9057 13.45 23.793 13.582 23.6504 13.6746C23.5078 13.7672 23.3414 13.8165 23.1714 13.8164H19.8808V21.8373C19.8808 22.0704 19.7882 22.294 19.6234 22.4588C19.4585 22.6236 19.235 22.7162 19.0019 22.7162ZM11.7773 20.9584H18.123V12.9375C18.123 12.7044 18.2156 12.4809 18.3804 12.316C18.5452 12.1512 18.7688 12.0586 19.0019 12.0586H21.1956L14.949 5.1299L8.70286 12.0586H10.8984C11.1315 12.0586 11.355 12.1512 11.5198 12.316C11.6847 12.4809 11.7773 12.7044 11.7773 12.9375V20.9584Z" fill="#696969"/>
<path d="M22.9007 26.4931H6.9978C5.98337 26.492 5.0108 26.0886 4.29349 25.3713C3.57618 24.6539 3.17272 23.6814 3.17163 22.6669V20.4304C3.17163 20.1973 3.26423 19.9738 3.42906 19.8089C3.59388 19.6441 3.81744 19.5515 4.05054 19.5515C4.28364 19.5515 4.50719 19.6441 4.67202 19.8089C4.83684 19.9738 4.92944 20.1973 4.92944 20.4304V22.6669C4.93006 23.2153 5.14818 23.7411 5.53594 24.1288C5.9237 24.5166 6.44943 24.7347 6.9978 24.7353H22.9007C23.4491 24.7347 23.9747 24.5165 24.3624 24.1288C24.7501 23.741 24.968 23.2153 24.9685 22.6669V20.4304C24.9685 20.1973 25.0611 19.9738 25.2259 19.8089C25.3908 19.6441 25.6143 19.5515 25.8474 19.5515C26.0805 19.5515 26.3041 19.6441 26.4689 19.8089C26.6337 19.9738 26.7263 20.1973 26.7263 20.4304V22.6669C26.7252 23.6813 26.3219 24.6538 25.6047 25.3711C24.8875 26.0883 23.9151 26.4919 22.9007 26.4931Z" fill="#696969"/>
</svg>
